<?xml version="1.0" encoding="iso-8859-1"?>
<!-- Generator: Adobe Illustrator 18.0.0, SVG Export Plug-In . SVG Version: 6.00 Build 0)  -->
<!DOCTYPE svg PUBLIC "-//W3C//DTD SVG 1.1//EN" "http://www.w3.org/Graphics/SVG/1.1/DTD/svg11.dtd">
<svg version="1.1" id="Capa_1" xmlns="http://www.w3.org/2000/svg" xmlns:xlink="http://www.w3.org/1999/xlink" x="0px" y="0px"
	 viewBox="0 0 338.734 338.734" style="enable-background:new 0 0 338.734 338.734;" xml:space="preserve">
<path style="fill:#231F20;" d="M255.189,87.068h-24.156c-4.143,0-7.5,3.358-7.5,7.5v20c0,4.142,3.357,7.5,7.5,7.5h24.156
	c26.768,0,48.545,21.777,48.545,48.544v44.582c0,26.767-21.777,48.544-48.545,48.544H83.544C56.776,263.738,35,241.961,35,215.194
	v-44.582c0-26.767,21.776-48.544,48.544-48.544h25.615l-20.126,20.125c-2.929,2.929-2.929,7.678,0,10.607l14.143,14.143
	c1.407,1.407,3.314,2.197,5.304,2.197s3.896-0.79,5.304-2.197l57.071-57.071c2.929-2.929,2.929-7.678,0-10.606l-57.071-57.071
	c-1.407-1.407-3.314-2.197-5.304-2.197s-3.896,0.79-5.304,2.197L89.033,56.336c-2.929,2.929-2.929,7.678,0,10.606l20.126,20.125
	H83.544C37.478,87.068,0,124.545,0,170.612v44.582c0,46.066,37.478,83.544,83.544,83.544h171.646
	c46.066,0,83.545-37.478,83.545-83.544v-44.582C338.734,124.545,301.256,87.068,255.189,87.068z"/>
<g>
</g>
<g>
</g>
<g>
</g>
<g>
</g>
<g>
</g>
<g>
</g>
<g>
</g>
<g>
</g>
<g>
</g>
<g>
</g>
<g>
</g>
<g>
</g>
<g>
</g>
<g>
</g>
<g>
</g>
</svg>
