<svg width="148" height="148" viewBox="0 0 148 148" fill="none" xmlns="http://www.w3.org/2000/svg">
<path d="M73.6917 6.16663C38.3074 6.16663 9.28702 33.2691 6.16669 67.8333H61.3584V49.3333C61.3584 46.842 62.863 44.585 65.1632 43.6353C67.4695 42.6856 70.1212 43.2098 71.8849 44.9735L96.5515 69.6401C98.9627 72.0513 98.9627 75.9486 96.5515 78.3598L71.8849 103.026C70.1212 104.79 67.4695 105.314 65.1632 104.365C62.8569 103.409 61.3584 101.158 61.3584 98.6666V80.1666H6.16669C9.28702 114.731 38.3074 141.833 73.6917 141.833C111.154 141.833 141.525 111.462 141.525 74C141.525 36.5375 111.154 6.16663 73.6917 6.16663Z" fill="white"/>
<path d="M141.525 74H98.3584C98.3584 75.5787 97.754 77.1573 96.5515 78.3598L71.8849 103.027C70.7009 104.204 69.1284 104.833 67.525 104.833C66.7295 104.833 65.9279 104.679 65.1632 104.365C62.8569 103.409 61.3584 101.158 61.3584 98.6667V80.1667H6.16669C9.28702 114.731 38.3074 141.833 73.6917 141.833C111.154 141.833 141.525 111.462 141.525 74Z" fill="#E8E8E8"/>
</svg>
