<svg width="148" height="148" viewBox="0 0 148 148" fill="none" xmlns="http://www.w3.org/2000/svg">
<g clip-path="url(#clip0)">
<path d="M61.4349 120.493C59.57 118.628 56.5474 118.628 54.6825 120.493L42.1743 133.001C40.3094 134.863 40.3094 137.889 42.1743 139.751C44.0261 141.609 47.0523 141.625 48.9267 139.751L61.4349 127.243C63.2998 125.377 63.2998 122.355 61.4349 120.493ZM27.5058 86.5639C25.6439 84.699 22.6213 84.699 20.7564 86.5639L8.24816 99.0721C6.38327 100.937 6.38327 103.96 8.24816 105.824C10.1101 107.686 13.1279 107.694 14.9976 105.824L27.5058 93.3163C29.3707 91.4517 29.3707 88.4287 27.5058 86.5639ZM50.1262 97.8729C48.2613 96.008 45.2387 96.011 43.3738 97.8729L11.6736 129.573C9.8087 131.438 9.8087 134.461 11.6736 136.325C13.5379 138.184 16.5545 138.191 18.426 136.325L50.1262 104.625C51.9911 102.76 51.9911 99.7378 50.1262 97.8729ZM147.757 6.26335L102.516 144.713C101.237 148.621 95.9268 149.191 93.8512 145.629L63.4281 93.3076C62.4673 91.6576 62.5837 89.5957 63.7205 88.062L74.6443 73.3547L59.937 84.2785C58.4033 85.4154 56.3415 85.5318 54.6915 84.571L2.37002 54.1475C-1.17955 52.083 -0.633506 46.7652 3.28605 45.4825L141.736 0.241686C145.436 -0.96587 148.97 2.54729 147.757 6.26335V6.26335Z" fill="white"/>
</g>
<defs>
<clipPath id="clip0">
<rect width="148" height="148" fill="white"/>
</clipPath>
</defs>
</svg>
