<svg width="255" height="105" viewBox="0 0 255 105" fill="none" xmlns="http://www.w3.org/2000/svg">
<path d="M34.5 21C40.299 21 45 25.701 45 31.5V31.5C45 37.299 40.299 42 34.5 42L18 42L18 21L34.5 21Z" fill="#005AAA"/>
<rect y="20" width="21" height="49" fill="#005AAA"/>
<path d="M0 68.585C0 68.585 9.8 65 21 65C20.3 71.4528 25.9 81.4906 35 81.4906C35 92.2452 30.8 103 30.8 103C17.5 103 0 87.2265 0 68.585Z" fill="#005AAA"/>
<path d="M0 10.5C0 4.70101 4.70101 0 10.5 0V0C16.299 0 21 4.70101 21 10.5V22H0V10.5Z" fill="#005AAA"/>
<path d="M43.866 81.2784C49.9696 81.1258 55 86.032 55 92.1375V92.1375C55 98.1367 50.1367 103 44.1375 103L30 103L30 81L35 81.5L43.866 81.2784Z" fill="#005AAA"/>
<path d="M84.5 82.6391C87.5935 83.0429 91.6217 83.6011 96.057 83.9119C101.453 84.2902 106 88.5933 106 94.0022V94.0022C106 99.0718 102.004 103.346 96.9592 103.844C93.6957 104.166 90.2407 104.377 84.5 104V82.6391Z" fill="#005AAA"/>
<path d="M120.575 71.5238L94.0715 76.5875C88.3003 77.6902 82.7621 73.7966 81.8464 67.9928C80.945 62.2796 84.8779 56.9286 90.5996 56.0833L110.712 53.1117C115.248 53.9214 116.974 53.7416 121.283 52.4036C124.587 50.9438 126.278 49.5301 129.073 46.0302C131.111 52.1188 130.541 57.3607 129.833 60.9015C129.073 64.7014 125.532 70.1075 120.575 71.5238Z" fill="#8FC73E"/>
<path fill-rule="evenodd" clip-rule="evenodd" d="M61.0897 35.4078C39.1368 58.777 53.2999 101.266 85.875 104.099V82.8543C81.798 81.9806 77.721 78.7118 75.0722 74.1313C72.7935 70.5016 71.7639 65.9034 71.7639 60.9014C71.7639 49.1683 80.5673 40.3649 92.3004 40.3649C101.338 40.3649 107.797 45.4066 110.611 53.2247C113.036 54.0293 118.183 54.2145 122.043 53.1117C123.771 52.6179 129.073 49.5709 129.073 46.0302C122.182 28.1856 112.129 20.5365 91.5404 21.2447C77.0262 22.392 70.3937 25.551 61.0897 35.4078Z" fill="#005AAA"/>
<rect x="137" y="21" width="21" height="48" fill="#005AAA"/>
<path d="M137 68.585C137 68.585 146.8 65 158 65C157.3 71.4528 162.9 81.4906 172 81.4906C172 92.2452 167.8 103 167.8 103C154.5 103 137 87.2265 137 68.585Z" fill="#005AAA"/>
<path d="M137 10.5C137 4.70101 141.701 0 147.5 0V0C153.299 0 158 4.70101 158 10.5V22H137V10.5Z" fill="#005AAA"/>
<path d="M180.875 81.2587C186.977 81.1168 192 86.0244 192 92.1279V92.1279C192 98.1324 187.132 103 181.128 103L167.5 103L168 81L170.5 81.5L180.875 81.2587Z" fill="#005AAA"/>
<path fill-rule="evenodd" clip-rule="evenodd" d="M182.236 0.0232323C176.7 0.387651 172.322 4.99375 172.322 10.6223C172.322 16.2509 176.7 20.857 182.236 21.2215V21.2447C217.786 24.9609 228.863 36.1887 233.223 72.2319L233.247 72.2304C233.61 77.7675 238.217 82.1461 243.846 82.1461C249.712 82.1461 254.468 77.3903 254.468 71.5238C254.468 71.2863 254.46 71.0507 254.445 70.8172L254.468 70.8156C251.679 28.2811 227.606 2.22456 184.276 0.082695C183.84 0.0281173 183.395 0 182.944 0C182.797 0 182.651 0.00297844 182.506 0.00887819C182.416 0.00581788 182.326 0.00285846 182.236 0V0.0232323Z" fill="#91C83E"/>
<path fill-rule="evenodd" clip-rule="evenodd" d="M182.236 48.1546C182.742 48.1546 183.24 48.1167 183.725 48.0435C195.192 47.604 206.211 56.7384 206.419 70.7832C206.349 71.2561 206.313 71.7398 206.313 72.2319C206.313 72.5353 206.327 72.8355 206.354 73.1319C206.342 73.3034 206.328 73.4755 206.313 73.6482L206.413 73.6411C207.097 78.4491 211.231 82.1461 216.228 82.1461C221.703 82.1461 226.142 77.7074 226.142 72.2319C226.142 71.2734 226.006 70.3466 225.752 69.4699C222.377 48.0715 210.919 29.2577 182.804 28.3422C182.616 28.3316 182.427 28.3262 182.237 28.3262L182.236 28.3262C176.761 28.3262 172.322 32.765 172.322 38.2404C172.322 43.7159 176.761 48.1546 182.236 48.1546Z" fill="#91C83E"/>
</svg>
