<svg width="255" height="105" viewBox="0 0 255 105" fill="none" xmlns="http://www.w3.org/2000/svg">
<path d="M34.6997 21.2447C40.5662 21.2447 45.322 26.0005 45.322 31.867C45.322 37.7336 40.5662 42.4894 34.6997 42.4894L21.2447 42.4894L21.2447 21.2447L34.6997 21.2447Z" fill="white"/>
<rect y="21.2447" width="21.2447" height="48.1546" fill="white"/>
<path d="M0 69.3994C0 69.3994 9.91419 65.8585 21.2447 65.8585C20.5365 72.2319 26.2018 82.1461 35.4078 82.1461C35.4078 92.7684 31.1589 103.391 31.1589 103.391C17.7039 103.391 0 87.8114 0 69.3994Z" fill="white"/>
<path d="M0 10.6223C0 4.75578 4.75578 0 10.6223 0C16.4889 0 21.2447 4.75578 21.2447 10.6223V21.2447H0V10.6223Z" fill="white"/>
<path d="M44.614 82.1461C50.4805 82.1461 55.2363 86.9019 55.2363 92.7685C55.2363 98.635 50.4805 103.391 44.614 103.391L31.159 103.391L31.159 82.1461L44.614 82.1461Z" fill="white"/>
<path d="M86.3433 82.8543C89.0226 83.2331 92.3093 83.6392 95.9636 83.8684C101.498 84.2156 106.172 88.5998 106.172 94.145C106.172 99.3144 102.112 103.739 96.9589 104.147C94.2478 104.362 91.2289 104.446 86.3433 104.099V82.8543Z" fill="white"/>
<path d="M121.043 71.5238L94.5396 76.5875C88.7684 77.6902 83.2302 73.7966 82.3145 67.9928C81.4131 62.2796 85.346 56.9286 91.0677 56.0833L111.18 53.1117C115.716 53.9214 117.442 53.7416 121.751 52.4036C125.055 50.9438 126.746 49.5301 129.541 46.0302C131.579 52.1188 131.009 57.3607 130.301 60.9015C129.541 64.7014 126 70.1075 121.043 71.5238Z" fill="#8FC73E"/>
<path fill-rule="evenodd" clip-rule="evenodd" d="M61.5578 35.4078C39.605 58.777 53.7681 101.266 86.3431 104.099V82.8543C82.2661 81.9806 78.1891 78.7118 75.5403 74.1313C73.2616 70.5016 72.232 65.9034 72.232 60.9014C72.232 49.1683 81.0354 40.3649 92.7685 40.3649C101.806 40.3649 108.265 45.4066 111.079 53.2247C113.504 54.0293 118.651 54.2145 122.511 53.1117C124.24 52.6179 129.541 49.5709 129.541 46.0302C122.65 28.1856 112.597 20.5365 92.0085 21.2447C77.4944 22.392 70.8619 25.551 61.5578 35.4078Z" fill="white"/>
<rect x="137.382" y="21.2447" width="21.2447" height="48.1546" fill="white"/>
<path d="M137.382 69.3994C137.382 69.3994 147.297 65.8585 158.627 65.8585C157.919 72.2319 163.584 82.1461 172.79 82.1461C172.79 92.7684 168.541 103.391 168.541 103.391C155.086 103.391 137.382 87.8114 137.382 69.3994Z" fill="white"/>
<path d="M137.382 10.6223C137.382 4.75578 142.138 0 148.005 0C153.871 0 158.627 4.75578 158.627 10.6223V21.2447H137.382V10.6223Z" fill="white"/>
<path d="M181.996 82.1461C187.863 82.1461 192.618 86.9019 192.618 92.7685C192.618 98.635 187.863 103.391 181.996 103.391L168.541 103.391L168.541 82.1461L181.996 82.1461Z" fill="white"/>
<path fill-rule="evenodd" clip-rule="evenodd" d="M182.704 0.0232323C177.168 0.387651 172.79 4.99375 172.79 10.6223C172.79 16.2509 177.168 20.857 182.704 21.2215V21.2447C218.254 24.9609 229.331 36.1887 233.691 72.2319L233.715 72.2304C234.078 77.7675 238.685 82.1461 244.314 82.1461C250.18 82.1461 254.936 77.3903 254.936 71.5238C254.936 71.2863 254.928 71.0507 254.913 70.8172L254.936 70.8156C252.147 28.2811 228.074 2.22456 184.744 0.082695C184.308 0.0281173 183.863 0 183.412 0C183.266 0 183.119 0.00297844 182.974 0.00887819C182.884 0.00581788 182.794 0.00285846 182.704 0V0.0232323Z" fill="#91C83E"/>
<path fill-rule="evenodd" clip-rule="evenodd" d="M182.704 48.1546C183.21 48.1546 183.708 48.1167 184.193 48.0435C195.661 47.604 206.679 56.7384 206.887 70.7832C206.817 71.2561 206.782 71.7398 206.782 72.2319C206.782 72.5353 206.795 72.8355 206.822 73.1319C206.81 73.3034 206.797 73.4755 206.782 73.6482L206.881 73.6411C207.565 78.4491 211.699 82.1461 216.696 82.1461C222.171 82.1461 226.61 77.7074 226.61 72.2319C226.61 71.2734 226.474 70.3466 226.22 69.4699C222.845 48.0715 211.387 29.2577 183.272 28.3422C183.084 28.3316 182.895 28.3262 182.705 28.3262L182.704 28.3262C177.229 28.3262 172.79 32.765 172.79 38.2404C172.79 43.7159 177.229 48.1546 182.704 48.1546Z" fill="#91C83E"/>
</svg>
